<?xml version="1.0" encoding="UTF-8" standalone="no"?>
<!DOCTYPE svg PUBLIC "-//W3C//DTD SVG 1.1//EN"
"http://www.w3.org/Graphics/SVG/1.1/DTD/svg11.dtd">
<svg version="1.1" xmlns="http://www.w3.org/2000/svg" xmlns:xlink="http://www.w3.org/1999/xlink">
<defs>
<clipPath id="c0_1"><path d="M917.5,822.5l0,-807l22,0l0,807Z" /></clipPath>
<style type="text/css"><![CDATA[
.g39_1{
fill: #DBDBDB;
}
.g165_1{
fill: #5A5A5A;
}
.g145_1{
fill: #6F6F6F;
}
.g173_1{
fill: #525252;
}
.g61_1{
fill: #C4C4C4;
}
.g33_1{
fill: #E1E1E1;
}
.g182_1{
fill: #494949;
}
.g63_1{
fill: #C2C2C2;
}
.g42_1{
fill: #D8D8D8;
}
.g158_1{
fill: #616161;
}
.g11_1{
fill: #F7F7F7;
}
.g191_1{
fill: #404040;
}
.g29_1{
fill: #E5E5E5;
}
.g109_1{
fill: #939393;
}
.g240_1{
fill: #0E0E0E;
}
.g238_1{
fill: #101010;
}
.g239_1{
fill: #0F0F0F;
}
.g46_1{
fill: #D4D4D4;
}
.g163_1{
fill: #5C5C5C;
}
.g127_1{
fill: #818181;
}
.g153_1{
fill: #676767;
}
.g170_1{
fill: #555555;
}
.g245_1{
fill: #090909;
}
.g249_1{
fill: #050505;
}
.g35_1{
fill: #DFDFDF;
}
.g233_1{
fill: #151515;
}
.g120_1{
fill: #888888;
}
.g203_1{
fill: #343434;
}
.g250_1{
fill: #040404;
}
.g210_1{
fill: #2C2C2C;
}
.g40_1{
fill: #DADADA;
}
.g22_1{
fill: #ECECEC;
}
.g162_1{
fill: #5D5D5D;
}
.g141_1{
fill: #737373;
}
.g100_1{
fill: #9D9D9D;
}
.g217_1{
fill: #252525;
}
.g247_1{
fill: #070707;
}
.g193_1{
fill: #3E3E3E;
}
.g53_1{
fill: #CDCDCD;
}
.g216_1{
fill: #262626;
}
.g77_1{
fill: #B4B4B4;
}
.g91_1{
fill: #A6A6A6;
}
.g242_1{
fill: #0C0C0C;
}
.g199_1{
fill: #383838;
}
.g229_1{
fill: #191919;
}
.g126_1{
fill: #828282;
}
.g149_1{
fill: #6B6B6B;
}
.g47_1{
fill: #D3D3D3;
}
.g136_1{
fill: #787878;
}
.g70_1{
fill: #BBBBBB;
}
.g147_1{
fill: #6D6D6D;
}
.g230_1{
fill: #181818;
}
.g36_1{
fill: #DEDEDE;
}
.g107_1{
fill: #959595;
}
.g81_1{
fill: #B0B0B0;
}
.g52_1{
fill: #CECECE;
}
.g1_1{
fill: #FFFFFF;
}
.g6_1{
fill: #FCFCFC;
}
.g89_1{
fill: #A8A8A8;
}
.g116_1{
fill: #8C8C8C;
}
.g209_1{
fill: #2D2D2D;
}
.g64_1{
fill: #C1C1C1;
}
.g174_1{
fill: #515151;
}
.g131_1{
fill: #7D7D7D;
}
.g104_1{
fill: #999999;
}
.g20_1{
fill: #EEEEEE;
}
.g121_1{
fill: #878787;
}
.g41_1{
fill: #D9D9D9;
}
.g68_1{
fill: #BDBDBD;
}
.g93_1{
fill: #A4A4A4;
}
.g58_1{
fill: #C7C7C7;
}
.g87_1{
fill: #AAAAAA;
}
.g114_1{
fill: #8E8E8E;
}
.g23_1{
fill: #EBEBEB;
}
.g108_1{
fill: #949494;
}
.g176_1{
fill: #4F4F4F;
}
.g135_1{
fill: #797979;
}
.g172_1{
fill: #535353;
}
.g246_1{
fill: #080808;
}
.g151_1{
fill: #696969;
}
.g79_1{
fill: #B2B2B2;
}
.g152_1{
fill: #686868;
}
.g80_1{
fill: #B1B1B1;
}
.g69_1{
fill: #BCBCBC;
}
.g187_1{
fill: #444444;
}
.g243_1{
fill: #0B0B0B;
}
.g201_1{
fill: #363636;
}
.g222_1{
fill: #202020;
}
.g183_1{
fill: #484848;
}
.g198_1{
fill: #393939;
}
.g88_1{
fill: #A9A9A9;
}
.g97_1{
fill: #A0A0A0;
}
.g181_1{
fill: #4A4A4A;
}
.g251_1{
fill: #030303;
}
.g75_1{
fill: #B6B6B6;
}
.g51_1{
fill: #CFCFCF;
}
.g144_1{
fill: #707070;
}
.g221_1{
fill: #212121;
}
.g57_1{
fill: #C8C8C8;
}
.g196_1{
fill: #3B3B3B;
}
.g226_1{
fill: #1C1C1C;
}
.g110_1{
fill: #929292;
}
.g169_1{
fill: #565656;
}
.g200_1{
fill: #373737;
}
.g86_1{
fill: #ABABAB;
}
.g15_1{
fill: #F3F3F3;
}
.g13_1{
fill: #F5F5F5;
}
.g45_1{
fill: #D5D5D5;
}
.g50_1{
fill: #D0D0D0;
}
.g142_1{
fill: #727272;
}
.g204_1{
fill: #333333;
}
.g111_1{
fill: #919191;
}
.g140_1{
fill: #747474;
}
.g192_1{
fill: #3F3F3F;
}
.g117_1{
fill: #8B8B8B;
}
.g154_1{
fill: #666666;
}
.g113_1{
fill: #8F8F8F;
}
.g90_1{
fill: #A7A7A7;
}
.g220_1{
fill: #222222;
}
.g24_1{
fill: #EAEAEA;
}
.g164_1{
fill: #5B5B5B;
}
.g194_1{
fill: #3D3D3D;
}
.g130_1{
fill: #7E7E7E;
}
.g83_1{
fill: #AEAEAE;
}
.g82_1{
fill: #AFAFAF;
}
.g34_1{
fill: #E0E0E0;
}
.g12_1{
fill: #F6F6F6;
}
.g59_1{
fill: #C6C6C6;
}
.g180_1{
fill: #4B4B4B;
}
.g2_1{
fill: none;
stroke: #000000;
stroke-width: 2;
stroke-linecap: square;
stroke-linejoin: miter;
}
.g244_1{
fill: #0A0A0A;
}
.g118_1{
fill: #8A8A8A;
}
.g146_1{
fill: #6E6E6E;
}
.g171_1{
fill: #545454;
}
.g175_1{
fill: #505050;
}
.g16_1{
fill: #F2F2F2;
}
.g71_1{
fill: #BABABA;
}
.g225_1{
fill: #1D1D1D;
}
.g252_1{
fill: #020202;
}
.g155_1{
fill: #646464;
}
.g166_1{
fill: #595959;
}
.g49_1{
fill: #D1D1D1;
}
.g73_1{
fill: #B8B8B8;
}
.g18_1{
fill: #F0F0F0;
}
.g218_1{
fill: #242424;
}
.g232_1{
fill: #161616;
}
.g103_1{
fill: #9A9A9A;
}
.g253_1{
fill: #010101;
}
.g115_1{
fill: #8D8D8D;
}
.g179_1{
fill: #4C4C4C;
}
.g9_1{
fill: #F9F9F9;
}
.g112_1{
fill: #909090;
}
.g212_1{
fill: #2A2A2A;
}
.g48_1{
fill: #D2D2D2;
}
.g28_1{
fill: #E6E6E6;
}
.g106_1{
fill: #969696;
}
.g124_1{
fill: #848484;
}
.g236_1{
fill: #121212;
}
.g160_1{
fill: #5F5F5F;
}
.g84_1{
fill: #ADADAD;
}
.g72_1{
fill: #B9B9B9;
}
.g188_1{
fill: #434343;
}
.g256_1{
stroke: #000000;
stroke-width: 1;
stroke-linecap: butt;
stroke-linejoin: round;
}
.g237_1{
fill: #111111;
}
.g3_1{
fill: #FFFFFF;
stroke: #FFFFFF;
stroke-width: 1;
stroke-linecap: butt;
stroke-linejoin: round;
}
.g76_1{
fill: #B5B5B5;
}
.g26_1{
fill: #E8E8E8;
}
.g177_1{
fill: #4E4E4E;
}
.g255_1{
fill: none;
stroke: #000000;
stroke-width: 2;
stroke-linecap: butt;
stroke-linejoin: miter;
}
.g96_1{
fill: #A1A1A1;
}
.g211_1{
fill: #2B2B2B;
}
.g44_1{
fill: #D6D6D6;
}
.g213_1{
fill: #292929;
}
.g157_1{
fill: #626262;
}
.g156_1{
fill: #636363;
}
.g186_1{
fill: #454545;
}
.g161_1{
fill: #5E5E5E;
}
.g219_1{
fill: #232323;
}
.g167_1{
fill: #585858;
}
.g125_1{
fill: #838383;
}
.g150_1{
fill: #6A6A6A;
}
.g129_1{
fill: #7F7F7F;
}
.g197_1{
fill: #3A3A3A;
}
.g60_1{
fill: #C5C5C5;
}
.g98_1{
fill: #9F9F9F;
}
.g128_1{
fill: #808080;
}
.g17_1{
fill: #F1F1F1;
}
.g74_1{
fill: #B7B7B7;
}
.g65_1{
fill: #C0C0C0;
}
.g95_1{
fill: #A2A2A2;
}
.g10_1{
fill: #F8F8F8;
}
.g134_1{
fill: #7A7A7A;
}
.g208_1{
fill: #2E2E2E;
}
.g105_1{
fill: #979797;
}
.g5_1{
fill: #FDFDFD;
}
.g139_1{
fill: #757575;
}
.g143_1{
fill: #717171;
}
.g202_1{
fill: #353535;
}
.g119_1{
fill: #898989;
}
.g254_1{
}
.g92_1{
fill: #A5A5A5;
}
.g27_1{
fill: #E7E7E7;
}
.g14_1{
fill: #F4F4F4;
}
.g94_1{
fill: #A3A3A3;
}
.g228_1{
fill: #1A1A1A;
}
.g178_1{
fill: #4D4D4D;
}
.g138_1{
fill: #767676;
}
.g205_1{
fill: #313131;
}
.g31_1{
fill: #E3E3E3;
}
.g4_1{
fill: #FFFFFF;
stroke: #FFFFFF;
stroke-width: 1;
stroke-linecap: butt;
stroke-linejoin: miter;
}
.g224_1{
fill: #1E1E1E;
}
.g101_1{
fill: #9C9C9C;
}
.g55_1{
fill: #CACACA;
}
.g185_1{
fill: #464646;
}
.g215_1{
fill: #272727;
}
.g227_1{
fill: #1B1B1B;
}
.g66_1{
fill: #BFBFBF;
}
.g62_1{
fill: #C3C3C3;
}
.g21_1{
fill: #EDEDED;
}
.g184_1{
fill: #474747;
}
.g231_1{
fill: #171717;
}
.g30_1{
fill: #E4E4E4;
}
.g159_1{
fill: #606060;
}
.g99_1{
fill: #9E9E9E;
}
.g43_1{
fill: #D7D7D7;
}
.g78_1{
fill: #B3B3B3;
}
.g133_1{
fill: #7B7B7B;
}
.g19_1{
fill: #EFEFEF;
}
.g122_1{
fill: #868686;
}
.g54_1{
fill: #CCCCCC;
}
.g148_1{
fill: #6C6C6C;
}
.g190_1{
fill: #414141;
}
.g248_1{
fill: #060606;
}
.g102_1{
fill: #9B9B9B;
}
.g25_1{
fill: #E9E9E9;
}
.g206_1{
fill: #303030;
}
.g235_1{
fill: #131313;
}
.g67_1{
fill: #BEBEBE;
}
.g123_1{
fill: #858585;
}
.g37_1{
fill: #DDDDDD;
}
.g132_1{
fill: #7C7C7C;
}
.g168_1{
fill: #575757;
}
.g189_1{
fill: #424242;
}
.g234_1{
fill: #141414;
}
.g8_1{
fill: #FAFAFA;
}
.g7_1{
fill: #FBFBFB;
}
.g241_1{
fill: #0D0D0D;
}
.g85_1{
fill: #ACACAC;
}
.g195_1{
fill: #3C3C3C;
}
.g56_1{
fill: #C9C9C9;
}
.g137_1{
fill: #777777;
}
.g223_1{
fill: #1F1F1F;
}
.g214_1{
fill: #282828;
}
.g32_1{
fill: #E2E2E2;
}
.g207_1{
fill: #2F2F2F;
}
.g38_1{
fill: #DCDCDC;
}
]]></style>
</defs>
<path d="M0,901l1031,0L1031,0L0,0Z" class="g1_1" />
<path d="M131,822l780,0L911,15L131,15Z" class="g1_1" />
<image x="131" y="14" width="781" height="809" xlink:href="img/1.png" />
<image x="149" y="33" width="737" height="770" xlink:href="img/2.png" />
<image x="189" y="54" width="686" height="733" xlink:href="img/3.png" />
<path d="M131,15l780,0" class="g2_1" />
<path d="M131,822l780,0" class="g2_1" />
<path d="M911.5,709.5l-11,0" class="g3_1" />
<path d="M911.5,539.5l-11,0" class="g3_1" />
<path d="M911.5,369.5l-11,0" class="g3_1" />
<path d="M911.5,198.5l-11,0" class="g3_1" />
<path d="M911.5,26.5l-11,0" class="g3_1" />
<path d="M911.5,811.5l-5,0" class="g3_1" />
<path d="M911.5,777.5l-5,0" class="g3_1" />
<path d="M911.5,743.5l-5,0" class="g3_1" />
<path d="M911.5,675.5l-5,0" class="g3_1" />
<path d="M911.5,641.5l-5,0" class="g3_1" />
<path d="M911.5,607.5l-5,0" class="g3_1" />
<path d="M911.5,573.5l-5,0" class="g3_1" />
<path d="M911.5,505.5l-5,0" class="g3_1" />
<path d="M911.5,471.5l-5,0" class="g3_1" />
<path d="M911.5,437.5l-5,0" class="g3_1" />
<path d="M911.5,403.5l-5,0" class="g3_1" />
<path d="M911.5,335.5l-5,0" class="g3_1" />
<path d="M911.5,300.5l-5,0" class="g3_1" />
<path d="M911.5,266.5l-5,0" class="g3_1" />
<path d="M911.5,232.5l-5,0" class="g3_1" />
<path d="M911.5,164.5l-5,0" class="g3_1" />
<path d="M911.5,129.5l-5,0" class="g3_1" />
<path d="M911.5,95.5l-5,0" class="g3_1" />
<path d="M911.5,60.5l-5,0" class="g3_1" />
<path d="M911,822L911,15" class="g2_1" />
<path d="M131,822L131,15" class="g2_1" />
<path d="M831.5,15.5l0,10" class="g3_1" />
<path d="M702.5,15.5l0,10" class="g3_1" />
<path d="M575.5,15.5l0,10" class="g3_1" />
<path d="M447.5,15.5l0,10" class="g3_1" />
<path d="M320.5,15.5l0,10" class="g3_1" />
<path d="M193.5,15.5l0,10" class="g3_1" />
<path d="M908.5,15.5l0,5" class="g3_1" />
<path d="M882.5,15.5l0,5" class="g3_1" />
<path d="M856.5,15.5l0,5" class="g3_1" />
<path d="M805.5,15.5l0,5" class="g3_1" />
<path d="M779.5,15.5l0,5" class="g3_1" />
<path d="M754.5,15.5l0,5" class="g3_1" />
<path d="M728.5,15.5l0,5" class="g3_1" />
<path d="M677.5,15.5l0,5" class="g3_1" />
<path d="M651.5,15.5l0,5" class="g3_1" />
<path d="M626.5,15.5l0,5" class="g3_1" />
<path d="M600.5,15.5l0,5" class="g3_1" />
<path d="M549.5,15.5l0,5" class="g3_1" />
<path d="M524.5,15.5l0,5" class="g3_1" />
<path d="M498.5,15.5l0,5" class="g3_1" />
<path d="M473.5,15.5l0,5" class="g3_1" />
<path d="M422.5,15.5l0,5" class="g3_1" />
<path d="M396.5,15.5l0,5" class="g3_1" />
<path d="M371.5,15.5l0,5" class="g3_1" />
<path d="M345.5,15.5l0,5" class="g3_1" />
<path d="M294.5,15.5l0,5" class="g3_1" />
<path d="M269.5,15.5l0,5" class="g3_1" />
<path d="M244.5,15.5l0,5" class="g3_1" />
<path d="M218.5,15.5l0,5" class="g3_1" />
<path d="M167.5,15.5l0,5" class="g3_1" />
<path d="M142.5,15.5l0,5" class="g3_1" />
<path d="M131,15l780,0" class="g2_1" />
<path d="M911,822L911,15" class="g2_1" />
<path d="M131,822l780,0" class="g2_1" />
<path d="M131,822L131,15" class="g2_1" />
<path d="M827.5,822.5l0,-10" class="g3_1" />
<path d="M699.5,822.5l0,-10" class="g3_1" />
<path d="M573.5,822.5l0,-10" class="g3_1" />
<path d="M446.5,822.5l0,-10" class="g3_1" />
<path d="M320.5,822.5l0,-10" class="g3_1" />
<path d="M194.5,822.5l0,-10" class="g3_1" />
<path d="M903.5,822.5l0,-5" class="g3_1" />
<path d="M878.5,822.5l0,-5" class="g3_1" />
<path d="M852.5,822.5l0,-5" class="g3_1" />
<path d="M801.5,822.5l0,-5" class="g3_1" />
<path d="M776.5,822.5l0,-5" class="g3_1" />
<path d="M750.5,822.5l0,-5" class="g3_1" />
<path d="M725.5,822.5l0,-5" class="g3_1" />
<path d="M674.5,822.5l0,-5" class="g3_1" />
<path d="M649.5,822.5l0,-5" class="g3_1" />
<path d="M623.5,822.5l0,-5" class="g3_1" />
<path d="M598.5,822.5l0,-5" class="g3_1" />
<path d="M547.5,822.5l0,-5" class="g3_1" />
<path d="M522.5,822.5l0,-5" class="g3_1" />
<path d="M497.5,822.5l0,-5" class="g3_1" />
<path d="M471.5,822.5l0,-5" class="g3_1" />
<path d="M421.5,822.5l0,-5" class="g3_1" />
<path d="M396.5,822.5l0,-5" class="g3_1" />
<path d="M370.5,822.5l0,-5" class="g3_1" />
<path d="M345.5,822.5l0,-5" class="g3_1" />
<path d="M295.5,822.5l0,-5" class="g3_1" />
<path d="M269.5,822.5l0,-5" class="g3_1" />
<path d="M244.5,822.5l0,-5" class="g3_1" />
<path d="M219.5,822.5l0,-5" class="g3_1" />
<path d="M168.5,822.5l0,-5" class="g3_1" />
<path d="M143.5,822.5l0,-5" class="g3_1" />
<path d="M131.5,707.5l11,0" class="g3_1" />
<path d="M131.5,538.5l11,0" class="g3_1" />
<path d="M131.5,369.5l11,0" class="g3_1" />
<path d="M131.5,199.5l11,0" class="g3_1" />
<path d="M131.5,28.5l11,0" class="g3_1" />
<path d="M131.5,808.5l5,0" class="g3_1" />
<path d="M131.5,774.5l5,0" class="g3_1" />
<path d="M131.5,741.5l5,0" class="g3_1" />
<path d="M131.5,673.5l5,0" class="g3_1" />
<path d="M131.5,639.5l5,0" class="g3_1" />
<path d="M131.5,605.5l5,0" class="g3_1" />
<path d="M131.5,572.5l5,0" class="g3_1" />
<path d="M131.5,504.5l5,0" class="g3_1" />
<path d="M131.5,470.5l5,0" class="g3_1" />
<path d="M131.5,436.5l5,0" class="g3_1" />
<path d="M131.5,402.5l5,0" class="g3_1" />
<path d="M131.5,335.5l5,0" class="g3_1" />
<path d="M131.5,301.5l5,0" class="g3_1" />
<path d="M131.5,267.5l5,0" class="g3_1" />
<path d="M131.5,233.5l5,0" class="g3_1" />
<path d="M131.5,165.5l5,0" class="g3_1" />
<path d="M131.5,131.5l5,0" class="g3_1" />
<path d="M131.5,97.5l5,0" class="g3_1" />
<path d="M131.5,62.5l5,0" class="g3_1" />
<g clip-path="url(#c0_1)">
<path d="M917.5,822.5l0,-3l0,-801l0,-3l22,0l0,3l0,801l0,3Z" class="g4_1" />
</g>
<path d="M917,822l22,0l0,-3l-22,0l0,3Z" class="g1_1" />
<path d="M917,819l22,0l0,-3l-22,0l0,3Z" class="g5_1" />
<path d="M917,816l22,0l0,-3l-22,0l0,3Z" class="g6_1" />
<path d="M917,813l22,0l0,-3l-22,0l0,3Z" class="g7_1" />
<path d="M917,810l22,0l0,-4l-22,0l0,4Z" class="g8_1" />
<path d="M917,806l22,0l0,-3l-22,0l0,3Z" class="g9_1" />
<path d="M917,803l22,0l0,-3l-22,0l0,3Z" class="g10_1" />
<path d="M917,800l22,0l0,-3l-22,0l0,3Z" class="g11_1" />
<path d="M917,797l22,0l0,-3l-22,0l0,3Z" class="g12_1" />
<path d="M917,794l22,0l0,-3l-22,0l0,3Z" class="g13_1" />
<path d="M917,791l22,0l0,-3l-22,0l0,3Z" class="g14_1" />
<path d="M917,788l22,0l0,-4l-22,0l0,4Z" class="g15_1" />
<path d="M917,784l22,0l0,-3l-22,0l0,3Z" class="g16_1" />
<path d="M917,781l22,0l0,-3l-22,0l0,3Z" class="g17_1" />
<path d="M917,778l22,0l0,-3l-22,0l0,3Z" class="g18_1" />
<path d="M917,775l22,0l0,-3l-22,0l0,3Z" class="g19_1" />
<path d="M917,772l22,0l0,-3l-22,0l0,3Z" class="g20_1" />
<path d="M917,769l22,0l0,-4l-22,0l0,4Z" class="g21_1" />
<path d="M917,765l22,0l0,-3l-22,0l0,3Z" class="g22_1" />
<path d="M917,762l22,0l0,-3l-22,0l0,3Z" class="g23_1" />
<path d="M917,759l22,0l0,-3l-22,0l0,3Z" class="g24_1" />
<path d="M917,756l22,0l0,-3l-22,0l0,3Z" class="g25_1" />
<path d="M917,753l22,0l0,-3l-22,0l0,3Z" class="g26_1" />
<path d="M917,750l22,0l0,-3l-22,0l0,3Z" class="g27_1" />
<path d="M917,747l22,0l0,-4l-22,0l0,4Z" class="g28_1" />
<path d="M917,743l22,0l0,-3l-22,0l0,3Z" class="g29_1" />
<path d="M917,740l22,0l0,-3l-22,0l0,3Z" class="g30_1" />
<path d="M917,737l22,0l0,-3l-22,0l0,3Z" class="g31_1" />
<path d="M917,734l22,0l0,-3l-22,0l0,3Z" class="g32_1" />
<path d="M917,731l22,0l0,-3l-22,0l0,3Z" class="g33_1" />
<path d="M917,728l22,0l0,-4l-22,0l0,4Z" class="g34_1" />
<path d="M917,724l22,0l0,-3l-22,0l0,3Z" class="g35_1" />
<path d="M917,721l22,0l0,-3l-22,0l0,3Z" class="g36_1" />
<path d="M917,718l22,0l0,-3l-22,0l0,3Z" class="g37_1" />
<path d="M917,715l22,0l0,-3l-22,0l0,3Z" class="g38_1" />
<path d="M917,712l22,0l0,-3l-22,0l0,3Z" class="g39_1" />
<path d="M917,709l22,0l0,-3l-22,0l0,3Z" class="g40_1" />
<path d="M917,706l22,0l0,-4l-22,0l0,4Z" class="g41_1" />
<path d="M917,702l22,0l0,-3l-22,0l0,3Z" class="g42_1" />
<path d="M917,699l22,0l0,-3l-22,0l0,3Z" class="g43_1" />
<path d="M917,696l22,0l0,-3l-22,0l0,3Z" class="g44_1" />
<path d="M917,693l22,0l0,-3l-22,0l0,3Z" class="g45_1" />
<path d="M917,690l22,0l0,-3l-22,0l0,3Z" class="g46_1" />
<path d="M917,687l22,0l0,-4l-22,0l0,4Z" class="g47_1" />
<path d="M917,683l22,0l0,-3l-22,0l0,3Z" class="g48_1" />
<path d="M917,680l22,0l0,-3l-22,0l0,3Z" class="g49_1" />
<path d="M917,677l22,0l0,-3l-22,0l0,3Z" class="g50_1" />
<path d="M917,674l22,0l0,-3l-22,0l0,3Z" class="g51_1" />
<path d="M917,671l22,0l0,-3l-22,0l0,3Z" class="g52_1" />
<path d="M917,668l22,0l0,-3l-22,0l0,3Z" class="g53_1" />
<path d="M917,665l22,0l0,-4l-22,0l0,4Z" class="g54_1" />
<path d="M917,661l22,0l0,-3l-22,0l0,3Z" class="g54_1" />
<path d="M917,658l22,0l0,-3l-22,0l0,3Z" class="g55_1" />
<path d="M917,655l22,0l0,-3l-22,0l0,3Z" class="g56_1" />
<path d="M917,652l22,0l0,-3l-22,0l0,3Z" class="g57_1" />
<path d="M917,649l22,0l0,-3l-22,0l0,3Z" class="g58_1" />
<path d="M917,646l22,0l0,-4l-22,0l0,4Z" class="g59_1" />
<path d="M917,642l22,0l0,-3l-22,0l0,3Z" class="g60_1" />
<path d="M917,639l22,0l0,-3l-22,0l0,3Z" class="g61_1" />
<path d="M917,636l22,0l0,-3l-22,0l0,3Z" class="g62_1" />
<path d="M917,633l22,0l0,-3l-22,0l0,3Z" class="g63_1" />
<path d="M917,630l22,0l0,-3l-22,0l0,3Z" class="g64_1" />
<path d="M917,627l22,0l0,-3l-22,0l0,3Z" class="g65_1" />
<path d="M917,624l22,0l0,-4l-22,0l0,4Z" class="g66_1" />
<path d="M917,620l22,0l0,-3l-22,0l0,3Z" class="g67_1" />
<path d="M917,617l22,0l0,-3l-22,0l0,3Z" class="g68_1" />
<path d="M917,614l22,0l0,-3l-22,0l0,3Z" class="g69_1" />
<path d="M917,611l22,0l0,-3l-22,0l0,3Z" class="g70_1" />
<path d="M917,608l22,0l0,-3l-22,0l0,3Z" class="g71_1" />
<path d="M917,605l22,0l0,-4l-22,0l0,4Z" class="g72_1" />
<path d="M917,601l22,0l0,-3l-22,0l0,3Z" class="g73_1" />
<path d="M917,598l22,0l0,-3l-22,0l0,3Z" class="g74_1" />
<path d="M917,595l22,0l0,-3l-22,0l0,3Z" class="g75_1" />
<path d="M917,592l22,0l0,-3l-22,0l0,3Z" class="g76_1" />
<path d="M917,589l22,0l0,-3l-22,0l0,3Z" class="g77_1" />
<path d="M917,586l22,0l0,-3l-22,0l0,3Z" class="g78_1" />
<path d="M917,583l22,0l0,-4l-22,0l0,4Z" class="g79_1" />
<path d="M917,579l22,0l0,-3l-22,0l0,3Z" class="g80_1" />
<path d="M917,576l22,0l0,-3l-22,0l0,3Z" class="g81_1" />
<path d="M917,573l22,0l0,-3l-22,0l0,3Z" class="g82_1" />
<path d="M917,570l22,0l0,-3l-22,0l0,3Z" class="g83_1" />
<path d="M917,567l22,0l0,-3l-22,0l0,3Z" class="g84_1" />
<path d="M917,564l22,0l0,-4l-22,0l0,4Z" class="g85_1" />
<path d="M917,560l22,0l0,-3l-22,0l0,3Z" class="g86_1" />
<path d="M917,557l22,0l0,-3l-22,0l0,3Z" class="g87_1" />
<path d="M917,554l22,0l0,-3l-22,0l0,3Z" class="g88_1" />
<path d="M917,551l22,0l0,-3l-22,0l0,3Z" class="g89_1" />
<path d="M917,548l22,0l0,-3l-22,0l0,3Z" class="g90_1" />
<path d="M917,545l22,0l0,-3l-22,0l0,3Z" class="g91_1" />
<path d="M917,542l22,0l0,-4l-22,0l0,4Z" class="g92_1" />
<path d="M917,538l22,0l0,-3l-22,0l0,3Z" class="g93_1" />
<path d="M917,535l22,0l0,-3l-22,0l0,3Z" class="g94_1" />
<path d="M917,532l22,0l0,-3l-22,0l0,3Z" class="g95_1" />
<path d="M917,529l22,0l0,-3l-22,0l0,3Z" class="g96_1" />
<path d="M917,526l22,0l0,-3l-22,0l0,3Z" class="g97_1" />
<path d="M917,523l22,0l0,-4l-22,0l0,4Z" class="g98_1" />
<path d="M917,519l22,0l0,-3l-22,0l0,3Z" class="g99_1" />
<path d="M917,516l22,0l0,-3l-22,0l0,3Z" class="g100_1" />
<path d="M917,513l22,0l0,-3l-22,0l0,3Z" class="g101_1" />
<path d="M917,510l22,0l0,-3l-22,0l0,3Z" class="g102_1" />
<path d="M917,507l22,0l0,-3l-22,0l0,3Z" class="g103_1" />
<path d="M917,504l22,0l0,-3l-22,0l0,3Z" class="g104_1" />
<path d="M917,501l22,0l0,-4l-22,0l0,4Z" class="g104_1" />
<path d="M917,497l22,0l0,-3l-22,0l0,3Z" class="g105_1" />
<path d="M917,494l22,0l0,-3l-22,0l0,3Z" class="g106_1" />
<path d="M917,491l22,0l0,-3l-22,0l0,3Z" class="g107_1" />
<path d="M917,488l22,0l0,-3l-22,0l0,3Z" class="g108_1" />
<path d="M917,485l22,0l0,-3l-22,0l0,3Z" class="g109_1" />
<path d="M917,482l22,0l0,-4l-22,0l0,4Z" class="g110_1" />
<path d="M917,478l22,0l0,-3l-22,0l0,3Z" class="g111_1" />
<path d="M917,475l22,0l0,-3l-22,0l0,3Z" class="g112_1" />
<path d="M917,472l22,0l0,-3l-22,0l0,3Z" class="g113_1" />
<path d="M917,469l22,0l0,-3l-22,0l0,3Z" class="g114_1" />
<path d="M917,466l22,0l0,-3l-22,0l0,3Z" class="g115_1" />
<path d="M917,463l22,0l0,-3l-22,0l0,3Z" class="g116_1" />
<path d="M917,460l22,0l0,-4l-22,0l0,4Z" class="g117_1" />
<path d="M917,456l22,0l0,-3l-22,0l0,3Z" class="g118_1" />
<path d="M917,453l22,0l0,-3l-22,0l0,3Z" class="g119_1" />
<path d="M917,450l22,0l0,-3l-22,0l0,3Z" class="g120_1" />
<path d="M917,447l22,0l0,-3l-22,0l0,3Z" class="g121_1" />
<path d="M917,444l22,0l0,-3l-22,0l0,3Z" class="g122_1" />
<path d="M917,441l22,0l0,-4l-22,0l0,4Z" class="g123_1" />
<path d="M917,437l22,0l0,-3l-22,0l0,3Z" class="g124_1" />
<path d="M917,434l22,0l0,-3l-22,0l0,3Z" class="g125_1" />
<path d="M917,431l22,0l0,-3l-22,0l0,3Z" class="g126_1" />
<path d="M917,428l22,0l0,-3l-22,0l0,3Z" class="g127_1" />
<path d="M917,425l22,0l0,-3l-22,0l0,3Z" class="g128_1" />
<path d="M917,422l22,0l0,-3l-22,0l0,3Z" class="g129_1" />
<path d="M917,419l22,0l0,-4l-22,0l0,4Z" class="g130_1" />
<path d="M917,415l22,0l0,-3l-22,0l0,3Z" class="g131_1" />
<path d="M917,412l22,0l0,-3l-22,0l0,3Z" class="g132_1" />
<path d="M917,409l22,0l0,-3l-22,0l0,3Z" class="g133_1" />
<path d="M917,406l22,0l0,-3l-22,0l0,3Z" class="g134_1" />
<path d="M917,403l22,0l0,-3l-22,0l0,3Z" class="g135_1" />
<path d="M917,400l22,0l0,-4l-22,0l0,4Z" class="g136_1" />
<path d="M917,396l22,0l0,-3l-22,0l0,3Z" class="g137_1" />
<path d="M917,393l22,0l0,-3l-22,0l0,3Z" class="g138_1" />
<path d="M917,390l22,0l0,-3l-22,0l0,3Z" class="g139_1" />
<path d="M917,387l22,0l0,-3l-22,0l0,3Z" class="g140_1" />
<path d="M917,384l22,0l0,-3l-22,0l0,3Z" class="g141_1" />
<path d="M917,381l22,0l0,-4l-22,0l0,4Z" class="g142_1" />
<path d="M917,377l22,0l0,-3l-22,0l0,3Z" class="g143_1" />
<path d="M917,374l22,0l0,-3l-22,0l0,3Z" class="g144_1" />
<path d="M917,371l22,0l0,-3l-22,0l0,3Z" class="g145_1" />
<path d="M917,368l22,0l0,-3l-22,0l0,3Z" class="g146_1" />
<path d="M917,365l22,0l0,-3l-22,0l0,3Z" class="g147_1" />
<path d="M917,362l22,0l0,-3l-22,0l0,3Z" class="g148_1" />
<path d="M917,359l22,0l0,-4l-22,0l0,4Z" class="g149_1" />
<path d="M917,355l22,0l0,-3l-22,0l0,3Z" class="g150_1" />
<path d="M917,352l22,0l0,-3l-22,0l0,3Z" class="g151_1" />
<path d="M917,349l22,0l0,-3l-22,0l0,3Z" class="g152_1" />
<path d="M917,346l22,0l0,-3l-22,0l0,3Z" class="g153_1" />
<path d="M917,343l22,0l0,-3l-22,0l0,3Z" class="g154_1" />
<path d="M917,340l22,0l0,-4l-22,0l0,4Z" class="g154_1" />
<path d="M917,336l22,0l0,-3l-22,0l0,3Z" class="g155_1" />
<path d="M917,333l22,0l0,-3l-22,0l0,3Z" class="g156_1" />
<path d="M917,330l22,0l0,-3l-22,0l0,3Z" class="g157_1" />
<path d="M917,327l22,0l0,-3l-22,0l0,3Z" class="g158_1" />
<path d="M917,324l22,0l0,-3l-22,0l0,3Z" class="g159_1" />
<path d="M917,321l22,0l0,-3l-22,0l0,3Z" class="g160_1" />
<path d="M917,318l22,0l0,-4l-22,0l0,4Z" class="g161_1" />
<path d="M917,314l22,0l0,-3l-22,0l0,3Z" class="g162_1" />
<path d="M917,311l22,0l0,-3l-22,0l0,3Z" class="g163_1" />
<path d="M917,308l22,0l0,-3l-22,0l0,3Z" class="g164_1" />
<path d="M917,305l22,0l0,-3l-22,0l0,3Z" class="g165_1" />
<path d="M917,302l22,0l0,-3l-22,0l0,3Z" class="g166_1" />
<path d="M917,299l22,0l0,-4l-22,0l0,4Z" class="g167_1" />
<path d="M917,295l22,0l0,-3l-22,0l0,3Z" class="g168_1" />
<path d="M917,292l22,0l0,-3l-22,0l0,3Z" class="g169_1" />
<path d="M917,289l22,0l0,-3l-22,0l0,3Z" class="g170_1" />
<path d="M917,286l22,0l0,-3l-22,0l0,3Z" class="g171_1" />
<path d="M917,283l22,0l0,-3l-22,0l0,3Z" class="g172_1" />
<path d="M917,280l22,0l0,-3l-22,0l0,3Z" class="g173_1" />
<path d="M917,277l22,0l0,-4l-22,0l0,4Z" class="g174_1" />
<path d="M917,273l22,0l0,-3l-22,0l0,3Z" class="g175_1" />
<path d="M917,270l22,0l0,-3l-22,0l0,3Z" class="g176_1" />
<path d="M917,267l22,0l0,-3l-22,0l0,3Z" class="g177_1" />
<path d="M917,264l22,0l0,-3l-22,0l0,3Z" class="g178_1" />
<path d="M917,261l22,0l0,-3l-22,0l0,3Z" class="g179_1" />
<path d="M917,258l22,0l0,-4l-22,0l0,4Z" class="g180_1" />
<path d="M917,254l22,0l0,-3l-22,0l0,3Z" class="g181_1" />
<path d="M917,251l22,0l0,-3l-22,0l0,3Z" class="g182_1" />
<path d="M917,248l22,0l0,-3l-22,0l0,3Z" class="g183_1" />
<path d="M917,245l22,0l0,-3l-22,0l0,3Z" class="g184_1" />
<path d="M917,242l22,0l0,-3l-22,0l0,3Z" class="g185_1" />
<path d="M917,239l22,0l0,-3l-22,0l0,3Z" class="g186_1" />
<path d="M917,236l22,0l0,-4l-22,0l0,4Z" class="g187_1" />
<path d="M917,232l22,0l0,-3l-22,0l0,3Z" class="g188_1" />
<path d="M917,229l22,0l0,-3l-22,0l0,3Z" class="g189_1" />
<path d="M917,226l22,0l0,-3l-22,0l0,3Z" class="g190_1" />
<path d="M917,223l22,0l0,-3l-22,0l0,3Z" class="g191_1" />
<path d="M917,220l22,0l0,-3l-22,0l0,3Z" class="g192_1" />
<path d="M917,217l22,0l0,-4l-22,0l0,4Z" class="g193_1" />
<path d="M917,213l22,0l0,-3l-22,0l0,3Z" class="g194_1" />
<path d="M917,210l22,0l0,-3l-22,0l0,3Z" class="g195_1" />
<path d="M917,207l22,0l0,-3l-22,0l0,3Z" class="g196_1" />
<path d="M917,204l22,0l0,-3l-22,0l0,3Z" class="g197_1" />
<path d="M917,201l22,0l0,-3l-22,0l0,3Z" class="g198_1" />
<path d="M917,198l22,0l0,-3l-22,0l0,3Z" class="g199_1" />
<path d="M917,195l22,0l0,-4l-22,0l0,4Z" class="g200_1" />
<path d="M917,191l22,0l0,-3l-22,0l0,3Z" class="g201_1" />
<path d="M917,188l22,0l0,-3l-22,0l0,3Z" class="g202_1" />
<path d="M917,185l22,0l0,-3l-22,0l0,3Z" class="g203_1" />
<path d="M917,182l22,0l0,-3l-22,0l0,3Z" class="g204_1" />
<path d="M917,179l22,0l0,-3l-22,0l0,3Z" class="g204_1" />
<path d="M917,176l22,0l0,-4l-22,0l0,4Z" class="g205_1" />
<path d="M917,172l22,0l0,-3l-22,0l0,3Z" class="g206_1" />
<path d="M917,169l22,0l0,-3l-22,0l0,3Z" class="g207_1" />
<path d="M917,166l22,0l0,-3l-22,0l0,3Z" class="g208_1" />
<path d="M917,163l22,0l0,-3l-22,0l0,3Z" class="g209_1" />
<path d="M917,160l22,0l0,-3l-22,0l0,3Z" class="g210_1" />
<path d="M917,157l22,0l0,-3l-22,0l0,3Z" class="g211_1" />
<path d="M917,154l22,0l0,-4l-22,0l0,4Z" class="g212_1" />
<path d="M917,150l22,0l0,-3l-22,0l0,3Z" class="g213_1" />
<path d="M917,147l22,0l0,-3l-22,0l0,3Z" class="g214_1" />
<path d="M917,144l22,0l0,-3l-22,0l0,3Z" class="g215_1" />
<path d="M917,141l22,0l0,-3l-22,0l0,3Z" class="g216_1" />
<path d="M917,138l22,0l0,-3l-22,0l0,3Z" class="g217_1" />
<path d="M917,135l22,0l0,-4l-22,0l0,4Z" class="g218_1" />
<path d="M917,131l22,0l0,-3l-22,0l0,3Z" class="g219_1" />
<path d="M917,128l22,0l0,-3l-22,0l0,3Z" class="g220_1" />
<path d="M917,125l22,0l0,-3l-22,0l0,3Z" class="g221_1" />
<path d="M917,122l22,0l0,-3l-22,0l0,3Z" class="g222_1" />
<path d="M917,119l22,0l0,-3l-22,0l0,3Z" class="g223_1" />
<path d="M917,116l22,0l0,-3l-22,0l0,3Z" class="g224_1" />
<path d="M917,113l22,0l0,-4l-22,0l0,4Z" class="g225_1" />
<path d="M917,109l22,0l0,-3l-22,0l0,3Z" class="g226_1" />
<path d="M917,106l22,0l0,-3l-22,0l0,3Z" class="g227_1" />
<path d="M917,103l22,0l0,-3l-22,0l0,3Z" class="g228_1" />
<path d="M917,100l22,0l0,-3l-22,0l0,3Z" class="g229_1" />
<path d="M917,97l22,0l0,-3l-22,0l0,3Z" class="g230_1" />
<path d="M917,94l22,0l0,-4l-22,0l0,4Z" class="g231_1" />
<path d="M917,90l22,0l0,-3l-22,0l0,3Z" class="g232_1" />
<path d="M917,87l22,0l0,-3l-22,0l0,3Z" class="g233_1" />
<path d="M917,84l22,0l0,-3l-22,0l0,3Z" class="g234_1" />
<path d="M917,81l22,0l0,-3l-22,0l0,3Z" class="g235_1" />
<path d="M917,78l22,0l0,-3l-22,0l0,3Z" class="g236_1" />
<path d="M917,75l22,0l0,-3l-22,0l0,3Z" class="g237_1" />
<path d="M917,72l22,0l0,-4l-22,0l0,4Z" class="g238_1" />
<path d="M917,68l22,0l0,-3l-22,0l0,3Z" class="g239_1" />
<path d="M917,65l22,0l0,-3l-22,0l0,3Z" class="g240_1" />
<path d="M917,62l22,0l0,-3l-22,0l0,3Z" class="g241_1" />
<path d="M917,59l22,0l0,-3l-22,0l0,3Z" class="g242_1" />
<path d="M917,56l22,0l0,-3l-22,0l0,3Z" class="g243_1" />
<path d="M917,53l22,0l0,-4l-22,0l0,4Z" class="g244_1" />
<path d="M917,49l22,0l0,-3l-22,0l0,3Z" class="g245_1" />
<path d="M917,46l22,0l0,-3l-22,0l0,3Z" class="g246_1" />
<path d="M917,43l22,0l0,-3l-22,0l0,3Z" class="g247_1" />
<path d="M917,40l22,0l0,-3l-22,0l0,3Z" class="g248_1" />
<path d="M917,37l22,0l0,-3l-22,0l0,3Z" class="g249_1" />
<path d="M917,34l22,0l0,-3l-22,0l0,3Z" class="g250_1" />
<path d="M917,31l22,0l0,-4l-22,0l0,4Z" class="g251_1" />
<path d="M917,27l22,0l0,-3l-22,0l0,3Z" class="g252_1" />
<path d="M917,24l22,0l0,-3l-22,0l0,3Z" class="g253_1" />
<path d="M917,21l22,0l0,-3l-22,0l0,3Z" class="g254_1" />
<path d="M917,18l22,0l0,-3l-22,0l0,3Z" class="g254_1" />
<path d="M917,822l0,-3L917,18l0,-3l22,0l0,3l0,801l0,3l-22,0" class="g255_1" />
<path d="M917.5,468.5l6,0" class="g256_1" />
<path d="M939.5,468.5l-7,0" class="g256_1" />
<path d="M917.5,312.5l6,0" class="g256_1" />
<path d="M939.5,312.5l-7,0" class="g256_1" />
<path d="M917.5,226.5l6,0" class="g256_1" />
<path d="M939.5,226.5l-7,0" class="g256_1" />
<path d="M917.5,166.5l6,0" class="g256_1" />
<path d="M939.5,166.5l-7,0" class="g256_1" />
<path d="M917.5,120.5l6,0" class="g256_1" />
<path d="M939.5,120.5l-7,0" class="g256_1" />
<path d="M917.5,82.5l6,0" class="g256_1" />
<path d="M939.5,82.5l-7,0" class="g256_1" />
<path d="M917.5,51.5l6,0" class="g256_1" />
<path d="M939.5,51.5l-7,0" class="g256_1" />
<path d="M917.5,24.5l6,0" class="g256_1" />
<path d="M939.5,24.5l-7,0" class="g256_1" />
</svg>